<svg width="57" height="43" viewBox="0 0 57 43" fill="none" xmlns="http://www.w3.org/2000/svg">
<path fill-rule="evenodd" clip-rule="evenodd" d="M15.857 3.09215C17.597 2.99215 19.335 3.00015 21.075 3.00015C21.087 3.00015 29.892 3.00015 29.892 3.00015C31.666 3.00015 33.404 2.99215 35.143 3.09215C36.724 3.18215 38.264 3.37415 39.797 3.80315C43.024 4.70515 45.842 6.58915 47.879 9.26015C49.904 11.9142 51 15.1632 51 18.4992C51 21.8392 49.904 25.0862 47.879 27.7402C45.842 30.4102 43.024 32.2952 39.797 33.1972C38.264 33.6262 36.724 33.8172 35.143 33.9082C33.404 34.0082 31.666 33.9992 29.926 33.9992C29.914 33.9992 21.107 34.0002 21.107 34.0002C19.335 33.9992 17.597 34.0082 15.857 33.9082C14.277 33.8172 12.737 33.6262 11.204 33.1972C7.977 32.2952 5.159 30.4102 3.122 27.7402C1.097 25.0862 0 21.8392 0 18.5002C0 15.1632 1.097 11.9142 3.122 9.26015C5.159 6.58915 7.977 4.70515 11.204 3.80315C12.737 3.37415 14.277 3.18215 15.857 3.09215Z" fill="url(#paint0_linear_96:1347)"/>
<g filter="url(#filter0_dd_96:1347)">
<path fill-rule="evenodd" clip-rule="evenodd" d="M35.5 32C42.9558 32 49 25.9558 49 18.5C49 11.0442 42.9558 5 35.5 5C28.0442 5 22 11.0442 22 18.5C22 25.9558 28.0442 32 35.5 32Z" fill="white"/>
</g>
<defs>
<filter id="filter0_dd_96:1347" x="14" y="0" width="43" height="43" filterUnits="userSpaceOnUse" color-interpolation-filters="sRGB">
<feFlood flood-opacity="0" result="BackgroundImageFix"/>
<feColorMatrix in="SourceAlpha" type="matrix" values="0 0 0 0 0 0 0 0 0 0 0 0 0 0 0 0 0 0 127 0" result="hardAlpha"/>
<feOffset dy="3"/>
<feGaussianBlur stdDeviation="0.5"/>
<feColorMatrix type="matrix" values="0 0 0 0 0 0 0 0 0 0 0 0 0 0 0 0 0 0 0.06 0"/>
<feBlend mode="normal" in2="BackgroundImageFix" result="effect1_dropShadow_96:1347"/>
<feColorMatrix in="SourceAlpha" type="matrix" values="0 0 0 0 0 0 0 0 0 0 0 0 0 0 0 0 0 0 127 0" result="hardAlpha"/>
<feOffset dy="3"/>
<feGaussianBlur stdDeviation="4"/>
<feColorMatrix type="matrix" values="0 0 0 0 0 0 0 0 0 0 0 0 0 0 0 0 0 0 0.15 0"/>
<feBlend mode="normal" in2="effect1_dropShadow_96:1347" result="effect2_dropShadow_96:1347"/>
<feBlend mode="normal" in="SourceGraphic" in2="effect2_dropShadow_96:1347" result="shape"/>
</filter>
<linearGradient id="paint0_linear_96:1347" x1="49.0541" y1="34.438" x2="25.3335" y2="-8.99877" gradientUnits="userSpaceOnUse">
<stop offset="0.14" stop-color="#6560F0"/>
<stop offset="0.89" stop-color="#7F8FFF"/>
</linearGradient>
</defs>
</svg>
